<svg id="Layer_1" xmlns="http://www.w3.org/2000/svg" viewBox="0 0 94 15"><style>.st0{fill:#FFFFFF;}</style><path class="st0" d="M67.6 4.3h-4.7L61 6.4l-1.8-2.1h-5.9v6.4h5.9L61 8.6l1.8 2.1h2.9V8.6h1.8c1.3 0 2.6-.4 2.6-2.2s-1.3-2.1-2.5-2.1zm-9.3 5.1h-3.6V8.1h3.2V6.8h-3.2V5.6h3.7L60 7.5l-1.7 1.9zm5.9.7l-2.3-2.6L64.2 5v5.1zm3.4-2.9h-1.9V5.6h1.9c.4-.1.8.2.9.6v.2c0 .4-.3.8-.7.9-.1 0-.2 0-.2-.1zM0 0v7.3L1.8 3h3.9l.5 1.1V3h4.5l1 2.3 1-2.3H27c.6 0 1.2.1 1.7.5V3h3.9v.5c.7-.4 1.6-.5 2.4-.5h5.7l.5 1.1V3h4.2l.6 1.1V3h4.1v9H46l-.8-1.4V12H40l-.6-1.4h-1.3l-.5 1.4h-2.7c-.8 0-1.6-.2-2.4-.5v.5h-6.4v-2c0-.3 0-.3-.2-.3h-.2V12H13.4v-1.1l-.5 1.1h-2.6l-.4-1.1V12h-5l-.6-1.4H3.1L2.5 12H0v3h94v-3.4c-.7.3-1.4.4-2.2.4H88v-.6c-.6.4-1.3.6-2 .6H73.9V9.9c0-.2 0-.3-.3-.3h-.2V12h-4V9.6c-.7.3-1.4.4-2.1.3H67V12h-4.8L61 10.6 59.7 12h-7.8V3h8L61 4.4 62.2 3h5.3c.7-.1 1.5.1 2.1.5V3h4.8c.7 0 1.4.2 2 .5V3h7.2v.5c.5-.3 1.1-.5 1.8-.5h4v.5c.6-.3 1.2-.5 1.9-.5H94V0H0zm76.7 6c0-.6-.3-1.1-.8-1.4-.6-.3-1.2-.4-1.8-.3h-3.4v6.4h1.5V8.4h1.6c.4-.1.8 0 1.1.3.2.4.3.8.2 1.3v.8h1.5V9.4c0-.4 0-.8-.2-1.2-.2-.2-.4-.4-.7-.5.6-.3 1-1 1-1.7zm-1.9.9c-.3.1-.5.2-.8.2h-1.8V5.6H74c.2 0 .5 0 .7.1.2.1.3.3.3.6.1.2 0 .5-.2.6zM5.3 9.3l.6 1.4h3v-5l2.2 5h1.3l2.1-5v5H16V4.3h-2.5l-1.8 4.4-1.9-4.4H7.4v6.1L4.9 4.3H2.7L0 10.7h1.6l.6-1.4h3.1zM3.7 5.4l1 2.6h-2l1-2.6zm78.8.2V4.3h-4.9v6.4h4.9V9.4H79V8.1h3.4V6.8H79V5.6h3.5zm3.7 3.7h-2.9v1.4h2.9c1.5 0 2.3-.6 2.3-2 0-.5-.1-1-.4-1.4-.5-.4-1.1-.6-1.7-.5h-.8c-.2 0-.4 0-.6-.1-.2-.1-.3-.3-.3-.5s.1-.4.2-.5c.2-.1.4-.1.6-.1h2.7V4.3h-3c-1-.1-2 .6-2.1 1.6v.3c0 2 1.7 1.9 3.1 2 .2 0 .4 0 .5.1.2.1.3.3.3.5s-.1.3-.2.4c-.2.1-.4.2-.6.1zM35.1 5.7h1.4V4.3h-1.4c-.8-.1-1.6.2-2.2.8-.6.6-.9 1.5-.9 2.4 0 .9.2 1.8.8 2.5.6.5 1.4.8 2.1.7h1.7l.6-1.4h3.1l.6 1.4h3V5.9l2.8 4.8h2.1V4.3h-1.5v4.5l-2.6-4.5h-2.3v6.1l-2.5-6.1h-2.2l-2.1 5.1H35c-.4 0-.7-.1-1-.3-.3-.4-.5-1-.4-1.5 0-.5.1-1 .4-1.5.3-.4.7-.5 1.1-.4zm3.7-.3l1 2.6h-2l1-2.6zm-9-1.1v6.4h1.5V4.3h-1.5zm59.1 1.9c0 2 1.7 1.9 3.1 2 .2 0 .4 0 .5.1.1.1.2.3.2.4 0 .2-.1.3-.2.4-.2.1-.4.2-.6.2h-2.8v1.4H92c.8.1 1.5-.2 2-.8V7.5c0-.1-.1-.1-.1-.2-.5-.4-1.1-.6-1.7-.5h-.8c-.2 0-.4 0-.6-.1-.2-.1-.3-.3-.3-.5s.1-.4.2-.5c.2-.1.4-.1.6-.1H94V4.3h-2.9c-1-.1-2 .6-2.1 1.6-.1.1-.1.2-.1.3zm-60-.2c0-.6-.2-1.1-.7-1.4-.6-.3-1.2-.4-1.8-.3H23v6.4h1.5V8.4h1.6c.4-.1.8 0 1.1.3.2.4.3.8.2 1.2v.8h1.5V9.4c0-.4 0-.8-.2-1.2-.2-.2-.4-.4-.7-.5.6-.3 1-1 .9-1.7zm-1.9.9c-.2.1-.5.2-.7.1h-1.8V5.6h1.8c.2 0 .5 0 .7.1.2.1.3.3.3.6 0 .2-.1.5-.3.6zm-5-1.3V4.3h-4.9v6.4H22V9.4h-3.5V8.1h3.4V6.8h-3.4V5.6H22z"/></svg>