<svg xmlns="http://www.w3.org/2000/svg" preserveAspectRatio="xMidYMid" width="22" height="20" viewBox="0 0 22 20"><defs><style>.cls-1 { fill: #2d2d2d; fill-rule: evenodd; }</style></defs><path d="M4.583 0C2.063 0 0 2.046 0 4.546v11.818h11V20h1.833v-3.636H22V4.546C22 2.046 19.937 0 17.417 0H4.583zm0 1.818c1.53 0 2.75 1.21 2.75 2.728v10h-5.5v-10c0-1.517 1.22-2.728 2.75-2.728zm3.638 0h9.2c1.53 0 2.75 1.21 2.75 2.728v10h-11v-10c0-1.03-.36-1.963-.94-2.728zm3.7 1.818v1.82h4.58v1.817h1.84V3.636h-6.42zm-9.17 1.82v1.817h3.67V5.455H2.75z" class="cls-1"/></svg>