<svg xmlns="http://www.w3.org/2000/svg" preserveAspectRatio="xMidYMid" width="18" height="20" viewBox="0 0 18 20"><defs><style>.cls-1 { fill: #2d2d2d; fill-rule: evenodd; }</style></defs><path d="M0 0v20h8.25v-3.077h1.5V20H18V0H0zm1.5 1.538h15v16.924h-5.25v-3.078h-4.5v3.078H1.5V1.538zM3 3.078v1.538h3v-1.54H3zm4.5 0v1.538h3v-1.54h-3zm4.5 0v1.538h3v-1.54h-3zM3 6.153V7.69h3V6.155H3zm4.5 0V7.69h3V6.155h-3zm4.5 0V7.69h3V6.155h-3zM3 9.23v1.54h3V9.23H3zm4.5 0v1.54h3V9.23h-3zm4.5 0v1.54h3V9.23h-3zm-9 3.08v1.538h3V12.31H3zm4.5 0v1.538h3V12.31h-3zm4.5 0v1.538h3V12.31h-3zm-9 3.077v1.538h3v-1.538H3zm9 0v1.538h3v-1.538h-3z" class="cls-1"/></svg>