<svg id="Capa_1" xmlns="http://www.w3.org/2000/svg" width="36.447" height="36.447" viewBox="0 0 36.447 36.447"><style>.calendar{fill:#ffffff;}</style><path class="calendar" d="M30.224 3.948h-1.098V2.75c0-1.517-1.197-2.75-2.67-2.75-1.474 0-2.67 1.233-2.67 2.75v1.197h-2.74V2.75c0-1.517-1.197-2.75-2.67-2.75-1.473 0-2.67 1.233-2.67 2.75v1.197h-2.74V2.75c0-1.517-1.197-2.75-2.67-2.75-1.473 0-2.67 1.233-2.67 2.75v1.197H6.224c-2.343 0-4.25 1.907-4.25 4.25v24c0 2.343 1.907 4.25 4.25 4.25h24c2.344 0 4.25-1.907 4.25-4.25v-24c0-2.342-1.907-4.25-4.25-4.25zM25.286 2.75c0-.69.525-1.25 1.17-1.25.646 0 1.17.56 1.17 1.25v4.896c0 .69-.524 1.25-1.17 1.25-.645 0-1.17-.56-1.17-1.25V2.75zm-8.08 0c0-.69.525-1.25 1.17-1.25s1.17.56 1.17 1.25v4.896c0 .69-.525 1.25-1.17 1.25s-1.17-.56-1.17-1.25V2.75zm-8.08 0c0-.69.524-1.25 1.17-1.25s1.17.56 1.17 1.25v4.896c0 .69-.526 1.25-1.17 1.25s-1.17-.56-1.17-1.25V2.75zm22.848 29.448c0 .965-.785 1.75-1.75 1.75h-24c-.965 0-1.75-.785-1.75-1.75v-22h27.5v22z"/><path d="M6.724 14.626h4.595v4.09h-4.6zm6.133 0h4.596v4.09h-4.596zm6.138 0h4.595v4.09h-4.595zm6.133 0h4.596v4.09h-4.596zM6.724 20.084h4.595v4.086h-4.6zm6.133 0h4.596v4.086h-4.596zm6.138 0h4.595v4.086h-4.595zm6.133 0h4.596v4.086h-4.596zM6.724 25.54h4.595v4.086h-4.6zm6.133 0h4.596v4.086h-4.596zm6.138 0h4.595v4.086h-4.595zm6.133 0h4.596v4.086h-4.596z"/></svg>