<svg xmlns="http://www.w3.org/2000/svg" preserveAspectRatio="xMidYMid" width="30" height="33" viewBox="0 0 30 33"><defs><style>.cls-1 { fill: #fff; fill-rule: evenodd; }</style></defs><path d="M15 0C9.22 0 4.5 4.718 4.5 10.5c0 3.613 1.847 6.828 4.64 8.718C3.79 21.514 0 26.82 0 33h3c0-6.646 5.354-12 12-12s12 5.354 12 12h3c0-6.18-3.79-11.486-9.14-13.782 2.793-1.89 4.64-5.105 4.64-8.718C25.5 4.718 20.78 0 15 0zm0 3c4.16 0 7.5 3.34 7.5 7.5S19.16 18 15 18s-7.5-3.34-7.5-7.5S10.84 3 15 3z" class="cls-1"/></svg>