<svg xmlns="http://www.w3.org/2000/svg" preserveAspectRatio="xMidYMid" width="16" height="16" viewBox="0 0 16 16"><defs><style>.cls-1 { fill: #fff; fill-rule: evenodd; }</style></defs><path d="M13.28-.003c-.69 0-1.377.267-1.912.802L1.115 11.06l-.144.144-.04.204-.72 3.62-.2.972.97-.205 3.62-.72.21-.042.15-.144L15.19 4.62c1.07-1.072 1.07-2.757 0-3.827-.534-.537-1.223-.804-1.91-.804zm0 1.254c.33 0 .666.16.985.48.64.64.64 1.34 0 1.98l-.472.46L11.84 2.2l.454-.474c.32-.32.656-.474.986-.474zm-2.364 1.88l1.952 1.96-7.952 7.96c-.43-.84-1.11-1.52-1.952-1.95l7.952-7.96zM2.12 12.16c.79.32 1.41.94 1.73 1.73l-2.16.432.43-2.16z" class="cls-1"/></svg>