<svg xmlns="http://www.w3.org/2000/svg" width="30" height="30" viewBox="0 0 30 30"><defs><style>.cls-1 { fill: #fff; fill-rule: evenodd; }</style></defs><path class="cls-1" d="M23.71 0a2.41 2.41 0 0 0-.58.08L2.81 5.43A3.784 3.784 0 0 0 0 9.064V26.25A3.767 3.767 0 0 0 3.75 30h22.5A3.767 3.767 0 0 0 30 26.25V10a3.767 3.767 0 0 0-3.75-3.75H9.53L23.75 2.5V5h2.5V2.5A2.533 2.533 0 0 0 23.71 0zM3.75 8.752h22.5a1.227 1.227 0 0 1 1.25 1.25V26.25a1.227 1.227 0 0 1-1.25 1.25H3.75a1.227 1.227 0 0 1-1.25-1.25V10a1.227 1.227 0 0 1 1.25-1.25zm19.38 7.5A1.875 1.875 0 1 0 25 18.128a1.877 1.877 0 0 0-1.87-1.88z"/></svg>