<svg xmlns="http://www.w3.org/2000/svg" width="20" height="30" viewBox="0 0 20 30"><defs><style>.cls-1 { fill: #fff; fill-rule: evenodd; }</style></defs><path class="cls-1" d="M10 .008a10.063 10.063 0 0 0-10 10.09 14.334 14.334 0 0 0 1.493 5.36 62.562 62.562 0 0 0 3.09 6.026c2.248 3.91 4.514 7.183 4.514 7.183L10 30l.9-1.33s2.266-3.273 4.514-7.184a62.562 62.562 0 0 0 3.09-6.026A14.334 14.334 0 0 0 20 10.1 10.062 10.062 0 0 0 10 .008zm0 2.242a7.8 7.8 0 0 1 7.778 7.848 13.622 13.622 0 0 1-1.285 4.45 61.733 61.733 0 0 1-3.02 5.815c-1.747 3.04-2.83 4.646-3.473 5.606-.643-.96-1.725-2.57-3.472-5.61a61.733 61.733 0 0 1-3.02-5.82 13.622 13.622 0 0 1-1.286-4.45A7.8 7.8 0 0 1 10 2.25zm0 5.606a2.242 2.242 0 1 0 2.222 2.242A2.232 2.232 0 0 0 10 7.856z"/></svg>