<svg xmlns="http://www.w3.org/2000/svg" preserveAspectRatio="xMidYMid" width="70" height="30" viewBox="0 0 70 30"><defs><style>.cls-1 { fill: #bebebe; fill-rule: evenodd; }</style></defs><path d="M69.54 12.61v-1.527h-.006l-.548 1.527h-.378l-.547-1.512v1.512h-.46v-2.154h.69l.53 1.48h.01l.5-1.48H70v2.154h-.46zm-2.87 0h-.492v-1.756h-.67v-.398h1.83v.398h-.67v1.756zm-7.445 10.478c-.222.645-.443 1.166-.658 1.565-.216.4-.442.71-.682.933-.24.223-.494.372-.765.45-.272.076-.574.114-.91.114-.145 0-.272-.012-.403-.023 8.25 1.667 12.75 3.783 12.663 3.77-15.697-2.516-20.44-2.693-34.22-2.693C8.54 27.204 0 30 0 30c3.952-1.83 8.918-3.226 14.565-4.2-6.974-.45-12.49-6.036-12.49-12.877C2.075 5.786 8.073 0 15.472 0c6.525 0 11.955 4.503 13.147 10.462h4.08v.498h-1.53l3.2 8.85h.05l1.86-5.254-1.24-3.596h-1.43v-.498h5.91v.498h-2.24l3.15 8.85h.04l3.24-8.85h-1.95v-.498h3.19v.498h-.53l-4.2 11.29H39l-2.387-6.815h-.047l-2.48 6.815h-1.193l-4.06-11.29h-.14c.102.64.17 1.293.17 1.963 0 5.53-3.608 10.236-8.673 12.08 4.41-.507 9.123-.795 14.045-.84 8.32-.076 15.292.75 20.737 1.795-.235-.088-.436-.2-.582-.35v-3.594h.517l.642 2.234c.17.6.35.982.53 1.15.18.17.37.255.56.255.24 0 .46-.092.68-.276.21-.185.42-.44.61-.76.19-.324.37-.704.53-1.14.16-.44.32-.904.46-1.395l-4.79-11.127h-.9v-.498h5.1v.498h-1.79l3.49 8.04 2.87-8.04h-2.07v-.498h3.81v.498H63.6l-4.38 12.133zm-37.957-2.69c1.34-.922 2.51-2.353 3.005-4.025l-5.18-.067c-.325.75-.51.994-1.284 1.54-.41.28-1.02.354-2.13.354-1.5 0-2.38-.526-3-1.165-.66-.672-.98-1.105-1-2.878h12.79c.01-.33-.01-1.115-.01-1.28 0-2.703-1.01-5.222-2.53-6.713-1.52-1.49-3.99-2.147-6.38-2.147-2.48 0-5.09.805-6.64 2.327-1.55 1.523-2.44 3.95-2.44 6.706 0 2.665.99 5.18 2.53 6.655 1.53 1.476 4.1 2.123 6.72 2.123 2.08 0 4.2-.505 5.54-1.43zM15.444 7.78c1.074 0 2.234.49 2.827 1.17.31.352.92.89.92 2.237h-7.32c-.01-1.13.39-1.897 1.11-2.535.66-.575 1.45-.872 2.47-.872zM53.46 21.42h1.146v.498h-3.234v-2.022h-.062c-.287.72-.75 1.3-1.386 1.738-.635.438-1.384.657-2.244.657-1.083 0-1.96-.28-2.627-.84-.67-.56-1.004-1.34-1.004-2.36 0-.67.12-1.21.37-1.62.24-.4.57-.73.99-.96.41-.24.88-.41 1.4-.53.52-.11 1.05-.22 1.59-.31s1.07-.19 1.59-.31c.52-.11.97-.29 1.37-.52v-2.42c0-.73-.19-1.26-.57-1.58-.38-.31-.89-.47-1.52-.47-.42 0-.77.06-1.06.19-.29.12-.55.34-.78.64-.23.3-.46.72-.68 1.25-.23.53-.48 1.2-.77 2h-.52V10.7c.62-.247 1.22-.445 1.81-.596.58-.15 1.2-.23 1.83-.23.75 0 1.39.09 1.93.266.54.18.99.405 1.35.68.36.28.62.59.78.946.17.35.25.704.25 1.06v8.614zm-2.088-5.993c-.67.307-1.303.515-1.9.622-.6.1-1.12.25-1.567.42-.446.17-.8.45-1.063.82-.264.37-.395.97-.395 1.8 0 .88.164 1.49.49 1.84.326.35.808.53 1.447.53.907-.03 1.633-.44 2.174-1.21.542-.78.814-1.81.814-3.08v-1.75z" class="cls-1"/></svg>