<svg xmlns="http://www.w3.org/2000/svg" preserveAspectRatio="xMidYMid" width="73" height="36" viewBox="0 0 73 36"><defs><style>.cls-1 { fill: #fff; fill-rule: evenodd; }</style></defs><path d="M69.54 15.61v-1.527h-.006l-.548 1.527h-.378l-.547-1.512v1.512h-.46v-2.154h.69l.53 1.48h.01l.5-1.48H70v2.154h-.46zm-2.87 0h-.492v-1.756h-.67v-.398h1.83v.398h-.67v1.756zm-7.445 10.478c-.222.645-.443 1.166-.658 1.565-.215.4-.442.71-.682.933-.24.223-.494.372-.765.45-.272.076-.575.114-.91.114-.144 0-.27-.012-.402-.023 8.25 1.667 12.748 3.783 12.662 3.77-15.697-2.516-20.44-2.693-34.22-2.693C8.54 30.204 0 33 0 33c3.952-1.83 8.92-3.226 14.566-4.2-6.975-.45-12.49-6.036-12.49-12.878C2.076 8.786 8.072 3 15.47 3c6.525 0 11.955 4.503 13.147 10.462h4.08v.498h-1.525l3.2 8.85h.05l1.862-5.254-1.242-3.596H33.61v-.498h5.917v.498h-2.24l3.15 8.85h.047l3.246-8.85h-1.956v-.498h3.197v.498h-.52l-4.2 11.29h-1.24l-2.38-6.815h-.05L34.1 25.25h-1.2l-4.06-11.29h-.14c.102.64.17 1.293.17 1.962 0 5.532-3.608 10.238-8.673 12.08 4.41-.506 9.122-.794 14.044-.84 8.32-.076 15.29.75 20.74 1.796-.23-.088-.43-.2-.58-.35v-3.594h.52l.64 2.234c.18.6.36.982.54 1.15.19.17.37.255.56.255.24 0 .47-.092.68-.276.22-.185.42-.44.61-.76.19-.324.37-.704.54-1.14.17-.44.33-.904.47-1.395l-4.79-11.127h-.89v-.498h5.11v.498H56.6l3.492 8.04 2.875-8.04h-2.08v-.498H64.7v.498h-1.08l-4.38 12.133zm-37.957-2.69c1.34-.922 2.51-2.353 3.005-4.025l-5.18-.067c-.325.75-.51.994-1.284 1.54-.41.28-1.02.354-2.13.354-1.5 0-2.38-.526-3-1.165-.66-.672-.98-1.105-1-2.878h12.79c.01-.33-.01-1.115-.01-1.28 0-2.703-1.01-5.222-2.53-6.713-1.52-1.49-3.99-2.147-6.38-2.147-2.48 0-5.09.805-6.64 2.327-1.56 1.523-2.45 3.95-2.45 6.706 0 2.665.99 5.18 2.53 6.655 1.53 1.476 4.1 2.123 6.72 2.123 2.08 0 4.2-.505 5.54-1.43zM15.444 10.78c1.074 0 2.234.49 2.827 1.17.31.352.92.89.92 2.237h-7.32c-.01-1.13.39-1.897 1.11-2.535.66-.575 1.45-.872 2.47-.872zM53.46 24.42h1.146v.498h-3.234v-2.022h-.062c-.287.72-.75 1.3-1.385 1.738-.636.438-1.385.657-2.245.657-1.083 0-1.96-.28-2.628-.84-.668-.56-1.003-1.34-1.003-2.36 0-.67.12-1.21.37-1.62.24-.4.57-.73.99-.96.41-.24.88-.41 1.4-.53.52-.11 1.05-.22 1.59-.31s1.07-.19 1.59-.31c.52-.11.97-.28 1.37-.52v-2.42c0-.73-.19-1.26-.57-1.58-.38-.31-.89-.47-1.52-.47-.42 0-.77.06-1.06.19-.29.12-.55.34-.78.64-.23.3-.46.72-.68 1.25-.23.53-.48 1.2-.77 2h-.52V13.7c.62-.247 1.22-.445 1.81-.596.58-.15 1.2-.23 1.83-.23.74 0 1.39.09 1.93.267.54.18.99.41 1.35.68.35.28.62.59.78.95.16.36.25.71.25 1.06v8.62zm-2.088-5.993c-.67.307-1.303.515-1.9.622-.6.1-1.12.25-1.567.42-.447.17-.8.45-1.063.82-.264.37-.395.97-.395 1.8 0 .88.164 1.49.49 1.84.326.35.81.53 1.447.53.908-.03 1.633-.44 2.174-1.21.542-.78.814-1.81.814-3.08v-1.75z" class="cls-1"/></svg>