<svg xmlns="http://www.w3.org/2000/svg" preserveAspectRatio="xMidYMid" width="24" height="24" viewBox="0 0 24 24"><defs><style>.cls-1 { fill: #fff; fill-rule: evenodd; }</style></defs><path d="M22.675 0H1.325C.593 0 0 .593 0 1.325v21.35C0 23.407.593 24 1.325 24H12.82v-9.294H9.69v-3.622h3.127v-2.67c0-3.1 1.893-4.79 4.658-4.79 1.324 0 2.463.1 2.795.144v3.24h-1.918c-1.504 0-1.795.715-1.795 1.763v2.32h3.586l-.467 3.62h-3.12V24h6.115c.74 0 1.33-.593 1.33-1.325V1.325C24 .593 23.41 0 22.68 0z" class="cls-1"/></svg>