<svg xmlns="http://www.w3.org/2000/svg" preserveAspectRatio="xMidYMid" width="30" height="30" viewBox="0 0 30 30"><defs><style>.cls-1 { fill: #1b998b; fill-rule: evenodd; }</style></defs><path d="M15 0C6.73 0 0 6.73 0 15s6.73 15 15 15 15-6.73 15-15S23.27 0 15 0zm0 2.308c7.024 0 12.692 5.668 12.692 12.692 0 7.023-5.668 12.692-12.692 12.692S2.308 22.022 2.308 15C2.308 7.976 7.976 2.308 15 2.308zm7.247 7.247l-8.4 8.402-4.94-4.94-1.66 1.658 5.77 5.77.83.793.83-.793 9.23-9.23-1.66-1.66z" class="cls-1"/></svg>