<svg xmlns="http://www.w3.org/2000/svg" preserveAspectRatio="xMidYMid" width="24" height="24" viewBox="0 0 24 24"><defs><style>.cls-1 { fill: #fff; fill-rule: evenodd; }</style></defs><path d="M22.224 0H1.772C.794 0 0 .775 0 1.73v20.538C0 23.224.794 24 1.772 24h20.452c.978 0 1.776-.776 1.776-1.732V1.73C24 .775 23.202 0 22.224 0zM7.118 20.45h-3.56V9h3.56v11.45zM5.338 7.433c-1.14 0-2.063-.925-2.063-2.065 0-1.138.923-2.063 2.064-2.063 1.13 0 2.06.925 2.06 2.063 0 1.14-.93 2.065-2.07 2.065zm15.113 13.02H16.9v-5.57c0-1.33-.025-3.038-1.85-3.038-1.853 0-2.136 1.447-2.136 2.94v5.667H9.35V9h3.415v1.565h.048c.475-.9 1.636-1.85 3.368-1.85 3.61 0 4.27 2.372 4.27 5.456v6.28z" class="cls-1"/></svg>