<svg id="Layer_1" xmlns="http://www.w3.org/2000/svg" viewBox="0 0 94 16"><style>.st0{fill:#FFFFFF;}</style><path class="st0" d="M13 15.8H9.8L11.7 4 7.5 15.8H5.3L5 4 3 15.8H0L2.5.4h4.7l.1 9.5L10.4.4h5L13 15.8zm8-5.6c-.2 0-.5-.1-.7-.1-1.8 0-2.8.6-2.8 1.9-.1.6.4 1.2 1 1.3h.2c1.3 0 2.2-1.2 2.3-3.1zm2.3 5.6h-2.7l.1-1.3c-.8 1-2.1 1.6-3.4 1.5-1.8 0-3-1.4-3-3.4 0-3.1 2.1-4.8 5.7-4.8.4 0 .9 0 1.3.1.1-.3.1-.5.1-.8 0-.8-.6-1.1-2.1-1.1-1.2 0-2.3.2-3.4.6 0-.2.4-2.8.4-2.8 1.4-.6 2.7-.8 4-.8 2.8 0 4.3 1.3 4.3 3.7 0 .8-.1 1.7-.3 2.5-.3 1.7-.9 5.6-1 6.6zM66.8.8l-.5 3.3c-.9-.5-1.9-.8-2.9-.8-2.4 0-4.1 2.4-4.1 5.8 0 2.3 1.1 3.8 3 3.8 1 0 1.9-.3 2.8-.8l-.6 3.5c-.9.3-1.9.4-2.9.5-3.5 0-5.7-2.6-5.7-6.7 0-5.5 3-9.4 7.3-9.4 1.3.1 2.5.3 3.6.8zM37.7 15.6c-.7.3-1.5.4-2.3.4-1.7 0-2.6-1-2.6-2.8.1-1.1.2-2.2.4-3.3.2-1.2 1.4-8.6 1.4-8.6h3.2l-.4 1.9h1.7l-.4 3H37c-.4 2.4-.9 5.4-.9 5.7 0 .5.3.9.8 1h.3c.3 0 .6 0 .9-.1l-.4 2.8zm9.9-.1c-1.1.3-2.2.5-3.3.5-3.6 0-5.5-1.9-5.5-5.6 0-4.3 2.4-7.4 5.6-7.4 2.7 0 4.4 1.8 4.4 4.5 0 1-.2 2.1-.4 3.1H42c-.2 1.8.9 2.6 2.8 2.6 1.2 0 2.3-.3 3.3-.8l-.5 3.1zm-1.8-7.4c0-.3.3-2.2-1.5-2.2-1 0-1.8.8-2.1 2.2h3.6zm-20.5-.9c0 1.6 1 3 2.5 3.5 1.3.6 1.5.8 1.5 1.4 0 .8-.6 1.1-1.9 1.1-1 0-2-.2-2.9-.5 0 0-.4 2.8-.4 2.9 1.1.3 2.2.4 3.4.4 3.4 0 5-1.3 5-4.2.1-1.5-.8-3-2.3-3.5-1.4-.6-1.5-.8-1.5-1.4 0-.7.5-1 1.6-1 .7.1 1.5.1 2.2.2l.5-2.9c-.9-.1-1.9-.2-2.9-.2-3.6 0-4.8 1.9-4.8 4.2zm66.2 8.6h-3.1l.2-1.2c-.7.9-1.8 1.4-3 1.4-2.4 0-3.9-2.1-3.9-5.2 0-4.2 2.4-7.7 5.3-7.7 1.3 0 2.4.6 3.1 1.7l.7-4.5H94l-2.5 15.5zm-4.7-2.9c1.5 0 2.6-1.7 2.6-4.2 0-1.6-.6-2.5-1.7-2.5-1.5 0-2.5 1.7-2.5 4.2-.1 1.7.4 2.5 1.6 2.5zm-9.5-9.6c-.4 3.9-1.1 7.8-1.7 11.7l-.1.8h3.2c1.2-7.7 1.4-9.2 3.3-9 .2-1.3.6-2.5 1.2-3.6-1.4-.3-2.1.5-3.1 2 .1-.6.2-1.3.2-1.9h-3zm-26.7 0c-.4 3.9-1.1 7.8-1.7 11.7l-.1.8H52c1.2-7.7 1.4-9.2 3.3-9 .2-1.3.6-2.5 1.2-3.6-1.4-.3-2.1.5-3.1 2 .1-.6.2-1.3.2-1.9h-3zM71.4 3c-1.3 0-2.6.2-3.9.7 0 0-.4 2.6-.5 2.8 1.1-.4 2.3-.6 3.4-.6 1.5 0 2.1.3 2.1 1.1 0 .3 0 .6-.1.8-.4-.1-.9-.1-1.3-.1-3.6 0-5.7 1.8-5.7 4.8 0 2 1.2 3.4 3 3.4 1.3.1 2.6-.5 3.4-1.5l-.1 1.3h2.7c.1-.9.7-4.8 1-6.7.2-.8.2-1.6.3-2.5-.1-2.2-1.6-3.5-4.3-3.5zm-1.7 10.8c-.6 0-1.2-.5-1.2-1.1v-.2c0-1.3.9-1.9 2.8-1.9.2 0 .5 0 .7.1 0 1.8-1 3.1-2.3 3.1z"/></svg>