<svg xmlns="http://www.w3.org/2000/svg" width="94" height="16" viewBox="0 0 94 16"><defs><style>.cls-1 { fill: #2d2d2d; fill-rule: evenodd; }</style></defs><path class="cls-1" d="M12.994 15.788h-3.24L11.61 3.945 7.465 15.788h-2.21l-.27-11.774L3.03 15.788H0L2.534.388h4.66l.13 9.536L10.468.388H15.5zm7.98-5.58a5.35 5.35 0 0 0-.724-.052c-1.836 0-2.766.64-2.766 1.906a1.144 1.144 0 0 0 1.162 1.278c1.32 0 2.27-1.28 2.328-3.133zm2.356 5.58h-2.684l.06-1.3a4.04 4.04 0 0 1-3.4 1.515c-1.756 0-2.96-1.4-2.96-3.424 0-3.06 2.095-4.83 5.69-4.83a10.535 10.535 0 0 1 1.32.1 3.157 3.157 0 0 0 .127-.82c0-.83-.564-1.14-2.078-1.14a10.59 10.59 0 0 0-3.43.56l.45-2.82a12.71 12.71 0 0 1 3.878-.66c2.782 0 4.256 1.27 4.253 3.67a16.235 16.235 0 0 1-.262 2.48c-.277 1.81-.88 5.7-.964 6.65zM66.8.8l-.53 3.344a6.105 6.105 0 0 0-2.896-.832c-2.42 0-4.116 2.38-4.116 5.773 0 2.338 1.14 3.75 3.025 3.75a6.192 6.192 0 0 0 2.752-.79l-.57 3.512a9.943 9.943 0 0 1-2.863.452c-3.49 0-5.663-2.56-5.663-6.66 0-5.51 3-9.36 7.3-9.36a11.063 11.063 0 0 1 3.56.8zM37.737 15.6a7.29 7.29 0 0 1-2.328.408c-1.66 0-2.57-.97-2.57-2.752a29.4 29.4 0 0 1 .44-3.34c.18-1.172 1.4-8.55 1.4-8.55h3.22l-.38 1.9h1.65l-.44 3.01h-1.66c-.37 2.385-.91 5.35-.91 5.745a.886.886 0 0 0 1.11.93 2.568 2.568 0 0 0 .87-.12zm9.877-.1a10.853 10.853 0 0 1-3.306.507c-3.606 0-5.485-1.92-5.485-5.59 0-4.284 2.39-7.437 5.636-7.437 2.65 0 4.35 1.765 4.35 4.536a13.814 13.814 0 0 1-.4 3.08H42c-.218 1.818.926 2.577 2.8 2.577a7.515 7.515 0 0 0 3.35-.79zm-1.81-7.43c.017-.263.34-2.237-1.5-2.237-1.025 0-1.76.8-2.058 2.236H45.8zM25.28 7.22a3.654 3.654 0 0 0 2.467 3.5c1.312.63 1.515.815 1.515 1.384 0 .78-.578 1.133-1.86 1.133a8.97 8.97 0 0 1-2.9-.493s-.426 2.76-.445 2.892a14.762 14.762 0 0 0 3.37.372c3.42 0 5-1.325 5-4.188a3.43 3.43 0 0 0-2.283-3.49c-1.36-.637-1.515-.777-1.515-1.363 0-.677.53-1.026 1.58-1.026a17.71 17.71 0 0 1 2.33.19l.46-2.9a21.663 21.663 0 0 0-2.86-.24c-3.63 0-4.89 1.93-4.88 4.24zm66.257 8.57h-3.065l.152-1.167a3.788 3.788 0 0 1-2.988 1.384c-2.355 0-3.913-2.065-3.913-5.2 0-4.167 2.416-7.68 5.273-7.68a3.64 3.64 0 0 1 3.1 1.71l.72-4.453H94zm-4.78-2.9c1.51 0 2.57-1.74 2.57-4.222 0-1.593-.6-2.457-1.718-2.457-1.47 0-2.52 1.75-2.52 4.21-.01 1.65.55 2.48 1.65 2.48zm-9.452-9.635c-.406 3.878-1.126 7.806-1.69 11.687l-.147.842H78.7c1.16-7.662 1.438-9.157 3.257-8.97a12.41 12.41 0 0 1 1.23-3.634c-1.357-.288-2.116.493-3.11 1.976a11.744 11.744 0 0 0 .2-1.9H77.3zm-26.675 0c-.407 3.878-1.13 7.806-1.692 11.687l-.147.842h3.25c1.16-7.662 1.44-9.157 3.26-8.97a12.49 12.49 0 0 1 1.23-3.634c-1.35-.288-2.11.493-3.1 1.976a11.52 11.52 0 0 0 .2-1.9h-2.98zm20.73-.28a12.7 12.7 0 0 0-3.876.663l-.45 2.818a10.607 10.607 0 0 1 3.43-.562c1.515 0 2.078.31 2.078 1.137a3.137 3.137 0 0 1-.128.82 10.48 10.48 0 0 0-1.32-.1c-3.6 0-5.687 1.78-5.687 4.83 0 2.03 1.2 3.43 2.96 3.43a4.04 4.04 0 0 0 3.395-1.51l-.06 1.3h2.684c.083-.94.686-4.84.967-6.65a15.984 15.984 0 0 0 .262-2.48c0-2.4-1.476-3.67-4.26-3.67zm-1.648 10.793a1.14 1.14 0 0 1-1.16-1.276c0-1.267.927-1.908 2.765-1.908a5.5 5.5 0 0 1 .722.05c-.07 1.86-1.02 3.138-2.34 3.138z"/></svg>