<svg xmlns="http://www.w3.org/2000/svg" width="22" height="16" viewBox="0 0 22 16"><defs><style>.cls-1 { fill: #fff; fill-rule: evenodd; }</style></defs><path class="cls-1" d="M2.36 0A2.386 2.386 0 0 0 0 2.4v11.2A2.386 2.386 0 0 0 2.36 16h17.28A2.386 2.386 0 0 0 22 13.6V2.4A2.386 2.386 0 0 0 19.64 0H2.36zm0 1.6h17.28a.78.78 0 0 1 .79.8v11.2a.78.78 0 0 1-.79.8H2.36a.78.78 0 0 1-.79-.8V2.4a.78.78 0 0 1 .79-.8zm.78 3.2V8h3.93V4.8H3.14zm7.86 0v1.6h7.07V4.8H11zm-7.86 5.6V12h3.15v-1.6H3.14zm3.93 0V12h3.14v-1.6H7.07zm3.93 0V12h3.14v-1.6H11zm3.93 0V12h3.14v-1.6h-3.14z"/></svg>