<svg xmlns="http://www.w3.org/2000/svg" width="16" height="16" viewBox="0 0 16 16"><defs><style>.cls-1 { fill: #fff; fill-rule: evenodd; }</style></defs><path class="cls-1" d="M2.9 0l-.13.54L.19 12.37l-.19.85h3.4l-.41 1.93-.2.85h4.87l.11-.56.72-3.35h1.88a5.532 5.532 0 0 0 5.52-4.44 4.038 4.038 0 0 0-.7-3.48 3.89 3.89 0 0 0-2.07-1.26 3.526 3.526 0 0 0-.9-1.71A4.027 4.027 0 0 0 9.3 0H2.9zm1.14 1.39H9.3a2.74 2.74 0 0 1 1.92.76 2.45 2.45 0 0 1 .5 2.42 4.034 4.034 0 0 1-4.15 3.34H4.56l-.11.55-.72 3.37H1.74zM5.8 2.41l-.13.55-.72 3.21-.19.85h2.46a2.75 2.75 0 0 0 2.62-2.11h.02a.055.055 0 0 0 0-.04 2.013 2.013 0 0 0-.28-1.7 1.938 1.938 0 0 0-1.55-.76H5.8zM6.92 3.8h1.11a.48.48 0 0 1 .42.18.614.614 0 0 1 .06.56v.03a1.528 1.528 0 0 1-1.29 1.06H6.5zm6.24.61a2.33 2.33 0 0 1 .96.66 2.5 2.5 0 0 1 .4 2.28 4.056 4.056 0 0 1-4.15 3.35H7.35l-.11.54-.72 3.37H4.54l.3-1.39h.02l.11-.57.72-3.35h1.88a5.55 5.55 0 0 0 5.53-4.43c.03-.16.04-.31.06-.46z"/></svg>