<svg xmlns="http://www.w3.org/2000/svg" version="1" viewBox="0 0 26 26" width="52" height="52"><style>.pdf{fill:#ffffff;}</style><path class="pdf" d="M8 0C5.8 0 4 1.8 4 4v7H1c-.6 0-1 .5-1 1v6c0 .5.4 1 1 1h3v3c0 2.2 1.8 4 4 4h12c2.2 0 4-1.8 4-4V8c0-1.1-.988-2.112-2.688-3.813-.3-.2-.512-.487-.812-.687-.2-.3-.488-.513-.688-.813C18.112.987 17.1 0 16 0H8zm0 2h7.313c.7.2.687 1.106.687 1.906v3c0 .6.4 1 1 1h3c1 0 2 0 2 1v13c0 1.1-.9 2-2 2H8c-1.1 0-2-.9-2-2V19h11c.6 0 1-.5 1-1v-6c0-.5-.4-1-1-1H6V4c0-1.1.9-2 2-2zM2.812 12c.276-.012.576 0 .876 0 .7 0 1.318.2 1.718.5.4.3.594.806.594 1.406-.1.6-.194 1.1-.594 1.5-.4.4-1.018.594-1.718.594H3.5v1.906c0 .1-.087.188-.188.188H2.095c0-.1-.094-.188-.094-.188v-5.593c0-.1.1-.12.1-.22.2-.05.45-.08.72-.093zm4.282 0h1.593c1 0 1.72.194 2.22.594.6.5.905 1.312.905 2.312 0 1.3-.506 2.007-.906 2.406-.5.5-1.4.782-2.5.782-.6 0-1.112.006-1.312-.094 0 0-.094-.087-.094-.188v-5.625c0-.1.094-.087.094-.187zm6 0h3.094c.1 0 .218.088.218.188v1c0 .1-.118.218-.218.218h-1.782v1h1.688c.1 0 .218.088.218.188v1c0 .1-.118.22-.218.22l-1.688-.002v2.094c0 .1-.12.188-.22.188h-1.092c-.1 0-.188-.088-.188-.188v-5.718c0-.1.088-.188.188-.188zm-9.688 1.313v1.374h.188c.5 0 .812-.28.812-.78.1-.5-.318-.595-.718-.595h-.282zm5 0v3.5h.188c.5 0 .894-.107 1.094-.407.3-.3.406-.806.406-1.406.2-1.1-.28-1.688-1.28-1.688h-.408z"/></svg>