<svg xmlns="http://www.w3.org/2000/svg" preserveAspectRatio="xMidYMid" width="14" height="14" viewBox="0 0 14 14"><defs><style>.cls-1 { fill: #bebebe; fill-rule: evenodd; }</style></defs><path d="M7 0C3.14 0 0 3.14 0 7s3.14 7 7 7 7-3.14 7-7-3.14-7-7-7zm0 1.167c3.23 0 5.833 2.604 5.833 5.833 0 3.23-2.604 5.833-5.833 5.833-3.23 0-5.833-2.604-5.833-5.833 0-1.91.92-3.585 2.333-4.648l.42.31L7 4.83V1.166zM3.245 3.61l-.656.947L6.6 7.4l.236.183.292-.11 2.99-1.093-.402-1.093L7 6.27 3.245 3.61z" class="cls-1"/></svg>