<svg xmlns="http://www.w3.org/2000/svg" width="50" height="29" viewBox="0 0 50 29"><defs><style>.cls-1 { fill: #fff; fill-rule: evenodd; }</style></defs><path id="icon" class="cls-1" d="M25 0l-.5.15L4.543 6.814.003 8.306l2.644.845v13.93a3.147 3.147 0 0 0-1.6 2.74 3.193 3.193 0 0 0 6.386 0 3.148 3.148 0 0 0-1.6-2.73V10.25l3.193 1.043v8.156a4.1 4.1 0 0 0 1.747 3.13 11.493 11.493 0 0 0 3.542 1.74 38.946 38.946 0 0 0 21.353 0 11.51 11.51 0 0 0 3.543-1.74 4.1 4.1 0 0 0 1.75-3.14v-8.15l4.49-1.49L50 8.31l-4.54-1.492L25.5.154zm0 3.332l14.967 4.974L25 13.283 10.032 8.31zm-12.772 9.05l12.273 4.08.5.15.5-.15 12.28-4.08v7.063a.97.97 0 0 1-.5.6 8.967 8.967 0 0 1-2.6 1.293 36.87 36.87 0 0 1-19.35 0 8.967 8.967 0 0 1-2.6-1.293.964.964 0 0 1-.5-.6v-7.062z"/></svg>