<svg xmlns="http://www.w3.org/2000/svg" preserveAspectRatio="xMidYMid" width="24" height="19" viewBox="0 0 24 19"><defs><style>.cls-1 { fill: #fff; fill-rule: evenodd; }</style></defs><path d="M24 2.25c-.883.38-1.832.638-2.828.754C22.19 2.41 22.97 1.47 23.337.35c-.95.55-2.005.95-3.127 1.164C19.312.582 18.032 0 16.616 0c-2.72 0-4.924 2.147-4.924 4.796 0 .376.044.742.128 1.093C7.727 5.69 4.1 3.78 1.67.87c-.423.708-.666 1.532-.666 2.41 0 1.665.87 3.133 2.19 3.994-.807-.025-1.566-.24-2.23-.6v.06C.964 9.06 2.66 11 4.914 11.44c-.414.11-.85.17-1.298.17-.317 0-.625-.03-.926-.086.627 1.906 2.445 3.293 4.6 3.332-1.686 1.285-3.81 2.052-6.116 2.052-.397 0-.79-.024-1.174-.068C2.18 18.205 4.767 19 7.548 19c9.057 0 14.01-7.31 14.01-13.648 0-.208-.005-.414-.015-.62.962-.676 1.797-1.52 2.457-2.483z" class="cls-1"/></svg>