<svg xmlns="http://www.w3.org/2000/svg" preserveAspectRatio="xMidYMid" width="51" height="16" viewBox="0 0 51 16"><defs><style>.cls-1 { fill: #fff; fill-rule: evenodd; }</style></defs><path d="M47.168 15.773s-.38-1.78-.503-2.322h-5.288c-.16.42-.87 2.33-.87 2.33h-4.335l6.132-14.21C42.74.56 43.478.29 44.467.29h3.19L51 15.778h-3.832zm-2.13-9.975l-.28-1.336c-.21.582-.572 1.52-.547 1.48 0 0-1.3 3.44-1.64 4.332H46l-.956-4.476zm-8.9-1.967c-.76-.31-1.74-.61-3.09-.59-1.615 0-2.363.69-2.363 1.34-.01.73.874 1.21 2.317 1.93 2.382 1.11 3.482 2.45 3.467 4.21-.04 3.21-2.85 5.29-7.19 5.29-1.86-.02-3.64-.39-4.6-.82l.58-3.47.53.25c1.35.58 2.23.82 3.88.82 1.18 0 2.46-.47 2.47-1.51.01-.67-.54-1.16-2.14-1.92-1.57-.74-3.64-1.98-3.62-4.21.02-3.01 2.9-5.12 6.98-5.12 1.6 0 2.88.34 3.7.65l-.56 3.36-.37-.18zm-18.17 11.94l2.58-15.5h4.13l-2.584 15.5h-4.128zm-9.96-.01L4.34 2.3C3.07 1.578 1.62.998.002.598L.052.27H6.71c.898.036 1.623.33 1.873 1.31L10.03 8.7l.43 2.148L14.504.28h4.374l-6.5 15.47-4.37.005z" class="cls-1"/><path d="M47.168 15.773s-.38-1.78-.503-2.322h-5.288c-.16.42-.87 2.33-.87 2.33h-4.335l6.132-14.21C42.74.56 43.478.29 44.467.29h3.19L51 15.778h-3.832zm-2.13-9.975l-.28-1.336c-.21.582-.572 1.52-.547 1.48 0 0-1.3 3.44-1.64 4.332H46l-.956-4.476zm-8.9-1.967c-.76-.31-1.74-.61-3.09-.59-1.615 0-2.363.69-2.363 1.34-.01.73.874 1.21 2.317 1.93 2.382 1.11 3.482 2.45 3.467 4.21-.04 3.21-2.85 5.29-7.19 5.29-1.86-.02-3.64-.39-4.6-.82l.58-3.47.53.25c1.35.58 2.23.82 3.88.82 1.18 0 2.46-.47 2.47-1.51.01-.67-.54-1.16-2.14-1.92-1.57-.74-3.64-1.98-3.62-4.21.02-3.01 2.9-5.12 6.98-5.12 1.6 0 2.88.34 3.7.65l-.56 3.36-.37-.18zm-18.17 11.94l2.58-15.5h4.13l-2.584 15.5h-4.128zm-9.96-.01L4.34 2.3C3.07 1.578 1.62.998.002.598L.052.27H6.71c.898.036 1.623.33 1.873 1.31L10.03 8.7l.43 2.148L14.504.28h4.374l-6.5 15.47-4.37.005z" class="cls-1"/><path d="M47.168 15.773s-.38-1.78-.503-2.322h-5.288c-.16.42-.87 2.33-.87 2.33h-4.335l6.132-14.21C42.74.56 43.478.29 44.467.29h3.19L51 15.778h-3.832zm-2.13-9.975l-.28-1.336c-.21.582-.572 1.52-.547 1.48 0 0-1.3 3.44-1.64 4.332H46l-.956-4.476zm-8.9-1.967c-.76-.31-1.74-.61-3.09-.59-1.615 0-2.363.69-2.363 1.34-.01.73.874 1.21 2.317 1.93 2.382 1.11 3.482 2.45 3.467 4.21-.04 3.21-2.85 5.29-7.19 5.29-1.86-.02-3.64-.39-4.6-.82l.58-3.47.53.25c1.35.58 2.23.82 3.88.82 1.18 0 2.46-.47 2.47-1.51.01-.67-.54-1.16-2.14-1.92-1.57-.74-3.64-1.98-3.62-4.21.02-3.01 2.9-5.12 6.98-5.12 1.6 0 2.88.34 3.7.65l-.56 3.36-.37-.18zm-18.17 11.94l2.58-15.5h4.13l-2.584 15.5h-4.128zm-9.96-.01L4.34 2.3C3.07 1.578 1.62.998.002.598L.052.27H6.71c.898.036 1.623.33 1.873 1.31L10.03 8.7l.43 2.148L14.504.28h4.374l-6.5 15.47-4.37.005z" class="cls-1"/><path d="M47.168 15.773s-.38-1.78-.503-2.322h-5.288c-.16.42-.87 2.33-.87 2.33h-4.335l6.132-14.21C42.74.56 43.478.29 44.467.29h3.19L51 15.778h-3.832zm-2.13-9.975l-.28-1.336c-.21.582-.572 1.52-.547 1.48 0 0-1.3 3.44-1.64 4.332H46l-.956-4.476zm-8.9-1.967c-.76-.31-1.74-.61-3.09-.59-1.615 0-2.363.69-2.363 1.34-.01.73.874 1.21 2.317 1.93 2.382 1.11 3.482 2.45 3.467 4.21-.04 3.21-2.85 5.29-7.19 5.29-1.86-.02-3.64-.39-4.6-.82l.58-3.47.53.25c1.35.58 2.23.82 3.88.82 1.18 0 2.46-.47 2.47-1.51.01-.67-.54-1.16-2.14-1.92-1.57-.74-3.64-1.98-3.62-4.21.02-3.01 2.9-5.12 6.98-5.12 1.6 0 2.88.34 3.7.65l-.56 3.36-.37-.18zm-18.17 11.94l2.58-15.5h4.13l-2.584 15.5h-4.128zm-9.96-.01L4.34 2.3C3.07 1.578 1.62.998.002.598L.052.27H6.71c.898.036 1.623.33 1.873 1.31L10.03 8.7l.43 2.148L14.504.28h4.374l-6.5 15.47-4.37.005z" class="cls-1"/><path d="M47.168 15.773s-.38-1.78-.503-2.322h-5.288c-.16.42-.87 2.33-.87 2.33h-4.335l6.132-14.21C42.74.56 43.478.29 44.467.29h3.19L51 15.778h-3.832zm-2.13-9.975l-.28-1.336c-.21.582-.572 1.52-.547 1.48 0 0-1.3 3.44-1.64 4.332H46l-.956-4.476zm-8.9-1.967c-.76-.31-1.74-.61-3.09-.59-1.615 0-2.363.69-2.363 1.34-.01.73.874 1.21 2.317 1.93 2.382 1.11 3.482 2.45 3.467 4.21-.04 3.21-2.85 5.29-7.19 5.29-1.86-.02-3.64-.39-4.6-.82l.58-3.47.53.25c1.35.58 2.23.82 3.88.82 1.18 0 2.46-.47 2.47-1.51.01-.67-.54-1.16-2.14-1.92-1.57-.74-3.64-1.98-3.62-4.21.02-3.01 2.9-5.12 6.98-5.12 1.6 0 2.88.34 3.7.65l-.56 3.36-.37-.18zm-18.17 11.94l2.58-15.5h4.13l-2.584 15.5h-4.128zm-9.96-.01L4.34 2.3C3.07 1.578 1.62.998.002.598L.052.27H6.71c.898.036 1.623.33 1.873 1.31L10.03 8.7l.43 2.148L14.504.28h4.374l-6.5 15.47-4.37.005z" class="cls-1"/></svg>