<svg xmlns="http://www.w3.org/2000/svg" preserveAspectRatio="xMidYMid" width="15" height="16" viewBox="0 0 15 16"><defs><style>.cls-1 { fill: #717073; fill-rule: evenodd; }</style></defs><path d="M5.285 0v1.28h3.96V0h-3.96zm7.735 1.46l-.95.92.517.5-.68.68c-1.26-1.017-2.88-1.64-4.642-1.64-4.002 0-7.26 3.16-7.26 7.04S3.263 16 7.265 16c4.003 0 7.26-3.16 7.26-7.04 0-1.708-.642-3.28-1.69-4.5l.7-.66.517.5.95-.92-1.982-1.92zM7.265 3.2c3.29 0 5.94 2.57 5.94 5.76 0 3.188-2.65 5.76-5.94 5.76-3.288 0-5.94-2.572-5.94-5.76 0-3.19 2.652-5.76 5.94-5.76zM4.44 5.3l-.95.92 2.497 2.42c-.027.102-.042.21-.042.32 0 .707.59 1.28 1.32 1.28.73 0 1.32-.573 1.32-1.28 0-.707-.59-1.28-1.32-1.28-.113 0-.224.014-.33.04L4.44 5.3z" class="cls-1"/></svg>