<?xml version="1.0" encoding="utf-8"?>
<!-- Generator: Adobe Illustrator 19.2.1, SVG Export Plug-In . SVG Version: 6.00 Build 0)  -->
<svg version="1.1" id="Layer_1" xmlns="http://www.w3.org/2000/svg" xmlns:xlink="http://www.w3.org/1999/xlink" x="0px" y="0px"
	 viewBox="0 0 15 21" style="enable-background:new 0 0 15 21;" xml:space="preserve">
<style type="text/css">
	.st0{fill:#00245D;}
</style>
<path id="path-1" class="st0" d="M13.6,8.2l-0.4,0.3c-0.4,0.4-1.1,0.3-1.5-0.1L8.4,4.8v14.8c0,0.8-0.7,1.5-1.5,1.5s-1.5-0.7-1.5-1.5
	V4.8L2.2,8.3C1.8,8.7,1.1,8.8,0.7,8.4L0.3,8.2c-0.4-0.4-0.4-1.1,0-1.6l5.4-5.9c0,0,0,0,0,0l0.4-0.4C6.3,0.1,6.6,0,6.9,0
	c0.3,0,0.6,0.1,0.8,0.3L8,0.7c0,0,0,0,0,0l5.6,6C14,7.1,14,7.8,13.6,8.2z"/>
</svg>
