<svg xmlns="http://www.w3.org/2000/svg" preserveAspectRatio="xMidYMid" width="30" height="35" viewBox="0 0 30 35"><defs><style>.cls-1 { fill: #133d8d; fill-rule: evenodd; }</style></defs><path d="M15 0C6.756 0 0 6.67 0 14.808v8.077c0 1.74 1.15 3.223 2.727 3.786v.26c0 3.7 3.075 6.73 6.818 6.73h1.748c.473.81 1.34 1.35 2.343 1.35h2.728c1.5 0 2.727-1.21 2.727-2.69s-1.22-2.69-2.72-2.69h-2.73c-1 0-1.87.55-2.34 1.35H9.55c-2.256 0-4.09-1.81-4.09-4.04h2.727V14.81h-5.46C2.727 8.138 8.244 2.692 15 2.692s12.273 5.446 12.273 12.116h-5.455v12.115h4.09c2.244 0 4.09-1.823 4.09-4.038v-8.077C30 6.67 23.245 0 15 0zM2.727 17.5h2.728v6.73H4.09c-.755 0-1.363-.6-1.363-1.345V17.5zm21.818 0h2.728v5.385c0 .746-.608 1.346-1.364 1.346h-1.37V17.5z" class="cls-1"/></svg>