<svg xmlns="http://www.w3.org/2000/svg" preserveAspectRatio="xMidYMid" width="18" height="20" viewBox="0 0 18 20"><defs><style>.cls-1 { fill: #2d2d2d; fill-rule: evenodd; }</style></defs><path d="M9 0C4.054 0 0 3.81 0 8.462v4.615c0 .994.69 1.842 1.636 2.163v.145c0 2.112 1.845 3.846 4.09 3.846h1.05c.283.46.803.77 1.406.77h1.636c.9 0 1.637-.69 1.637-1.53 0-.84-.737-1.54-1.637-1.54H8.182c-.603 0-1.123.31-1.407.77H5.727c-1.353 0-2.454-1.03-2.454-2.3H4.91V8.47H1.635c0-3.82 3.31-6.93 7.365-6.93s7.363 3.11 7.363 6.923H13.09v6.923h2.455c1.347 0 2.455-1.043 2.455-2.31V8.463C18 3.813 13.946 0 9 0zM1.636 10h1.637v3.846h-.818c-.454 0-.82-.342-.82-.77V10zm13.09 0h1.638v3.077c0 .427-.365.77-.82.77h-.817V10z" class="cls-1"/></svg>