<?xml version="1.0" encoding="utf-8"?>
<!-- Generator: Adobe Illustrator 19.2.1, SVG Export Plug-In . SVG Version: 6.00 Build 0)  -->
<svg version="1.1" id="Layer_1" xmlns="http://www.w3.org/2000/svg" xmlns:xlink="http://www.w3.org/1999/xlink" x="0px" y="0px"
	 viewBox="0 0 48 36" style="enable-background:new 0 0 48 36;" xml:space="preserve">
<style type="text/css">
	.st0{fill:#00245D;}
</style>
<path id="path-1" class="st0" d="M33.2,35.4L33.2,35.4c-0.8,0-1.5-0.7-1.5-1.5c0-0.8,0.7-1.5,1.5-1.5h3.4c5.1,0,8.5-5.6,8.5-10.6
	c0-5.5-4.9-10-10.5-10.1l-1.1,0l-0.3-1c-1.5-4.9-4.9-7.8-10.9-7.8c-7.4,0-12.2,5.4-12.2,12.6l0,0l0.1,1.4l-1.4,0.2
	c-3.3,0.6-6,3.9-6,7.6c0,4.2,3.3,7.7,7.2,7.7h4.3c0.8,0,1.5,0.7,1.5,1.5c0,0.8-0.7,1.5-1.5,1.5h-4.3C4.6,35.4,0,30.5,0,24.7
	c0-4.7,3-8.9,7.2-10.2C7.7,6.3,13.8,0,22.4,0c6.8,0,11.3,3.5,13.4,8.9C42.6,9.6,48,15,48,21.8c0,6.3-3.9,13.4-11.4,13.6L33.2,35.4z"
	/>
</svg>
