<svg xmlns="http://www.w3.org/2000/svg" preserveAspectRatio="xMidYMid" width="32" height="34" viewBox="0 0 32 34"><defs><style>.cls-1 { fill: #fff; fill-rule: evenodd; }</style></defs><path d="M5.818 0v1.478H0V34h32V1.477h-5.818V0h-2.91v1.478H8.728V0h-2.91zm-2.91 4.435h2.91v1.478h2.91V4.435h14.545v1.478h2.91V4.435h2.908V7.39H2.91V4.436zm0 5.913H29.09v20.695H2.91V10.348zm8.73 2.956v2.957h2.907v-2.95h-2.908zm5.816 0v2.957h2.91v-2.95h-2.91zm5.82 0v2.957h2.908v-2.95h-2.91zM5.817 19.217v2.957h2.91v-2.957h-2.91zm5.82 0v2.957h2.907v-2.957h-2.908zm5.816 0v2.957h2.91v-2.957h-2.91zm5.82 0v2.957h2.908v-2.957h-2.91zM5.817 25.13v2.957h2.91V25.13h-2.91zm5.82 0v2.957h2.907V25.13h-2.908zm5.816 0v2.957h2.91V25.13h-2.91z" class="cls-1"/></svg>