<svg xmlns="http://www.w3.org/2000/svg" preserveAspectRatio="xMidYMid" width="37" height="37" viewBox="0 0 37 37"><defs><style>.cls-1 { stroke: #fff; stroke-width: 3px; fill: none; } .cls-2 { fill: #fff; fill-rule: evenodd; }</style></defs><circle cx="18.5" cy="18.5" r="17" class="cls-1"/><path d="M24.335 20.927H20.08l1.064-1.488h2.202c.57 0 1.033-.44 1.035-.98v-4c0-.54-.46-.98-1.03-.98h-2.73c-.57 0-1 .31-1.01.85v10.66l-2.65.01V14.5c.01-1.036.68-1.926 1.64-2.308.32-.123.66-.192 1.04-.192h4.71c1.47 0 2.66 1.118 2.66 2.5v3.927c0 1.382-1.19 2.5-2.66 2.5zM10.653 19.44h5.85l-1.065 1.487H9.665C8.187 20.927 7 19.81 7 18.427V14.5C7 13.117 8.186 12 9.663 12H16.5l-1.063 1.488h-4.785c-.572 0-1.033.433-1.036.972v4.008c.003.536.464.97 1.036.97z" class="cls-2"/></svg>