<svg xmlns="http://www.w3.org/2000/svg" width="16" height="16" viewBox="0 0 16 16">
  <defs>
    <style>
      .cls-1 {
        fill: #bbb;
        fill-rule: evenodd;
      }
    </style>
  </defs>
  <path class="cls-1" d="M685.278,5140a2.667,2.667,0,0,0-1.91.8l-10.253,10.26-0.145.15-0.041.2-0.719,3.62-0.205.97,0.965-.2,3.617-.72,0.205-.05,0.145-.14,10.253-10.26A2.715,2.715,0,0,0,685.278,5140Zm0,1.25a1.4,1.4,0,0,1,.987.47,1.261,1.261,0,0,1,0,1.98l-0.473.45-1.952-1.95,0.452-.48A1.4,1.4,0,0,1,685.278,5141.25Zm-2.362,1.87,1.952,1.96-7.952,7.96a4.482,4.482,0,0,0-1.953-1.95Zm-8.8,9.03a3.12,3.12,0,0,1,1.726,1.73l-2.157.43Z" transform="translate(-672 -5140)"/>
</svg>
