<svg xmlns="http://www.w3.org/2000/svg" width="50" height="60" viewBox="0 0 512 512"><defs><style>.cls-1 { fill: #fff; fill-rule: evenodd; }</style></defs><path d="M319.89 237.946h22.104l-25.506 113.09-33.162-159.006H230.05l-38.556 159.005-28.908-159.005H106.89l56.545 255.94h54.42L256 296.616l34.13 151.354h50.167l64.814-255.94h-85.22v45.916z"/><path d="M458.903 114.538c-11.105-15.146-26.587-32.85-43.59-49.852s-34.705-32.482-49.85-43.59C339.673 2.186 327.165 0 320 0H72C49.944 0 32 17.944 32 40v432c0 22.056 17.943 40 40 40h368c22.056 0 40-17.944 40-40V160c0-7.166-2.186-19.675-21.097-45.462zm-66.216-27.225c15.35 15.35 27.4 29.2 36.29 40.687H352V51.027c11.49 8.89 25.34 20.94 40.687 36.286zM448 472c0 4.336-3.664 8-8 8H72c-4.336 0-8-3.664-8-8V40c0-4.336 3.664-8 8-8h248v112c0 8.836 7.162 16 16 16h112v312z"/></svg>