<svg xmlns="http://www.w3.org/2000/svg" preserveAspectRatio="xMidYMid" width="50" height="60" viewBox="0 0 18 20"><defs><style>.cls-1 { fill: #fff; fill-rule: evenodd; }</style></defs><path d="M9 0C4.054 0 0 3.81 0 8.462v4.615c0 .994.69 1.842 1.636 2.163v.144c0 2.113 1.845 3.847 4.09 3.847h1.05c.284.46.803.77 1.406.77h1.636c.9 0 1.637-.69 1.637-1.53 0-.84-.737-1.54-1.637-1.54H8.182c-.603 0-1.122.31-1.406.77h-1.05c-1.352 0-2.453-1.03-2.453-2.31H4.91V8.47H1.635c0-3.82 3.31-6.93 7.365-6.93s7.363 3.11 7.363 6.923H13.09v6.923h2.456c1.346 0 2.454-1.042 2.454-2.308V8.462C18 3.812 13.946 0 9 0zM1.636 10h1.637v3.846h-.818c-.454 0-.82-.342-.82-.77V10zm13.09 0h1.638v3.077c0 .427-.365.77-.818.77h-.82V10z" class="cls-1"/></svg>