<svg xmlns="http://www.w3.org/2000/svg" preserveAspectRatio="xMidYMid" width="16" height="17" viewBox="0 0 16 17"><defs><style>.cls-1 { fill: #bebebe; fill-rule: evenodd; }</style></defs><path d="M8 0C4.917 0 2.4 2.43 2.4 5.41c0 1.86.985 3.517 2.475 4.49C2.02 11.084 0 13.818 0 17h1.6c0-3.424 2.856-6.182 6.4-6.182 3.544 0 6.4 2.758 6.4 6.182H16c0-3.183-2.02-5.917-4.875-7.1 1.49-.973 2.475-2.63 2.475-4.49C13.6 2.43 11.083 0 8 0zm0 1.546c2.22 0 4 1.72 4 3.863 0 2.14-1.78 3.86-4 3.86-2.22 0-4-1.72-4-3.87s1.78-3.86 4-3.86z" class="cls-1"/></svg>